<?xml version="1.0" encoding="UTF-8"?>
<svg id="Layer_1" xmlns="http://www.w3.org/2000/svg" xmlns:xlink="http://www.w3.org/1999/xlink" version="1.1" viewBox="0 0 800 600">
  <!-- Generator: Adobe Illustrator 29.5.0, SVG Export Plug-In . SVG Version: 2.1.0 Build 137)  -->
  <defs>
    <style>
      .st0 {
        fill: url(#linear-gradient1);
      }

      .st1 {
        fill: url(#linear-gradient);
      }

      .st2 {
        fill: #fff;
      }
    </style>
    <linearGradient id="linear-gradient" x1="-1270.55" y1="145.22" x2="-1269.51" y2="146.78" gradientTransform="translate(224620.93 -20272.84) scale(176.66 140.96)" gradientUnits="userSpaceOnUse">
      <stop offset="0" stop-color="#ffe873"/>
      <stop offset="1" stop-color="#ffd43b"/>
    </linearGradient>
    <linearGradient id="linear-gradient1" x1="-1266.86" y1="144.31" x2="-1265.85" y2="145.85" gradientTransform="translate(168865.15 -20433.76) scale(132.96 141.65)" gradientUnits="userSpaceOnUse">
      <stop offset="0" stop-color="#5a9fd4"/>
      <stop offset="1" stop-color="#306998"/>
    </linearGradient>
  </defs>
  <path class="st1" d="M469.14,377.31c-1.29.2-2.61.37-3.98.43-7.2.23-12.44-1.7-17.04-6.2l-26.02-25.55-32.87-32.3-105.49-103.6c-10.07-9.86-21.46-15.43-33.92-16.5-6.53-.58-13.08.09-19.44,1.96-9.48,2.71-17.97,7.67-25.14,14.77-11.21,11.02-17.15,24.26-17.21,38.33-.18,14.28,5.71,27.69,17.01,38.76l162.8,159.9c5.33,5.31,7.79,10.96,7.7,17.74v.61c.18,7.01-2.22,12.55-7.67,17.91-5.21,5.13-11.15,7.64-18.47,7.96-7.2.23-12.44-1.7-17.06-6.2l-164.41-161.46c-15.25-14.97-34.25-20.16-53.36-14.57-9.51,2.71-17.97,7.67-25.17,14.74-11.21,11.02-17.18,24.28-17.21,38.33-.18,14.28,5.71,27.69,17.01,38.79l170.09,167.02c24.35,23.91,56.61,34.44,95.83,31.26,36.82-2.94,67.38-16.09,90.83-39.14,21.98-21.6,35.01-47.16,38.9-76.23,30.65-4.85,56.46-17.45,76.92-37.49,11.74-11.54,20.93-24.23,27.54-37.96-41.45-1.15-82.66-11.57-120.16-31.24h0v-.09Z"/>
  <path class="st0" d="M601.88,352.22c.29-37.06-12.97-69.19-39.54-95.55l-105.02-103.14c-.7-.69-1.35-1.41-2.02-2.13-4.33-5.02-6.41-10.33-6.47-16.76-.09-7.12,2.49-13.01,8.08-18.49,5.59-5.51,11.27-7.9,18.65-7.73,7.43.06,13.55,2.71,19.23,8.31l177.35,174.15,35.45-34.81c3.28-2.62,5.74-5.11,8.43-8.45,17.33-21.69,15.43-52.69-4.42-72.19l-138.27-135.82C546.41,13.18,513.69-.14,476.22,0c-37.88-.14-70.66,13.12-97.44,39.4-26.43,25.96-39.93,57.51-40.1,93.71v1.87c-.26,35.27,12.03,66.22,36.53,91.95,1.17,1.24,2.34,2.48,3.57,3.69l104.64,102.76c5.53,5.42,7.96,10.96,7.87,17.91v.61c.18,7.01-2.22,12.55-7.67,17.91-4.24,4.15-8.96,6.58-14.52,7.5,37.53,19.67,78.74,30.08,120.16,31.24,8.23-17.1,12.44-35.82,12.59-56.07v-.29l.03.03Z"/>
  <path class="st2" d="M656.67,199.53c8.34-8.19,21.84-8.19,30.18,0,8.31,8.16,8.34,21.46,0,29.62-8.31,8.19-21.84,8.19-30.18,0-8.34-8.19-8.34-21.46,0-29.62h0Z"/>
</svg>